<?xml version="1.0" encoding="UTF-8" standalone="no"?><svg xmlns="http://www.w3.org/2000/svg" xmlns:xlink="http://www.w3.org/1999/xlink" contentScriptType="application/ecmascript" contentStyleType="text/css" height="167.2px" preserveAspectRatio="none" style="width:923px;height:167px;" version="1.1" viewBox="0 0 923 167" width="923.6px" zoomAndPan="magnify"><defs><filter height="300%" id="f1wnnbiwcc3jrw" width="300%" x="-1" y="-1"><feGaussianBlur result="blurOut" stdDeviation="0.8"/><feColorMatrix in="blurOut" result="blurOut2" type="matrix" values="0 0 0 0 0 0 0 0 0 0 0 0 0 0 0 0 0 0 .4 0"/><feOffset dx="1.6" dy="1.6" in="blurOut2" result="blurOut3"/><feBlend in="SourceGraphic" in2="blurOut3" mode="normal"/></filter></defs><g><!--MD5=[ff530916c8729a5c5b4ef9a41d7e28de]
cluster componentprovider--><polygon fill="#FFFFFF" filter="url(#f1wnnbiwcc3jrw)" points="8.8,9.6,67.2,9.6,70,18.5953,914.8,18.5953,914.8,162.4,8.8,162.4,8.8,9.6" style="stroke: #000000; stroke-width: 0.6000000000000001;"/><line style="stroke: #000000; stroke-width: 0.6000000000000001;" x1="8.8" x2="70" y1="18.5953" y2="18.5953"/><text fill="#000000" font-family="sans-serif" font-size="5.6" font-weight="bold" lengthAdjust="spacingAndGlyphs" textLength="56" x="10.4" y="15.8141">componentprovider</text><!--MD5=[7442f3b126ee602ae02566c1a49e158a]
cluster api--><polygon fill="#FFFFFF" filter="url(#f1wnnbiwcc3jrw)" points="333.6,70,344.8,70,347.6,78.9953,905.2,78.9953,905.2,152.8,333.6,152.8,333.6,70" style="stroke: #000000; stroke-width: 0.6000000000000001;"/><line style="stroke: #000000; stroke-width: 0.6000000000000001;" x1="333.6" x2="347.6" y1="78.9953" y2="78.9953"/><text fill="#000000" font-family="sans-serif" font-size="5.6" font-weight="bold" lengthAdjust="spacingAndGlyphs" textLength="8.8" x="335.2" y="76.2141">api</text><!--MD5=[cf58d37b78f149325f79356613ff3b39]
cluster impl--><polygon fill="#FFFFFF" filter="url(#f1wnnbiwcc3jrw)" points="18.4,26.8,34,26.8,36.8,35.7953,324,35.7953,324,109.6,18.4,109.6,18.4,26.8" style="stroke: #000000; stroke-width: 0.6000000000000001;"/><line style="stroke: #000000; stroke-width: 0.6000000000000001;" x1="18.4" x2="36.8" y1="35.7953" y2="35.7953"/><text fill="#000000" font-family="sans-serif" font-size="5.6" font-weight="bold" lengthAdjust="spacingAndGlyphs" textLength="13.2" x="20" y="33.0141">impl</text><!--MD5=[075aa6de4f00bd763b4891e9079ea7e2]
class ApacheComponentType--><rect fill="#FEFECE" filter="url(#f1wnnbiwcc3jrw)" height="19.2" id="ApacheComponentType" style="stroke: #A80036; stroke-width: 0.6000000000000001;" width="68" x="656.4" y="84"/><ellipse cx="662.4" cy="90.4" fill="#B4A7E5" rx="4.4" ry="4.4" style="stroke: #A80036; stroke-width: 0.4;"/><path d="M660.9711,88.9061 L660.9711,88.0428 L663.9229,88.0428 L663.9229,88.9061 L662.9367,88.9061 L662.9367,92.1367 L663.9229,92.1367 L663.9229,93 L660.9711,93 L660.9711,92.1367 L661.9572,92.1367 L661.9572,88.9061 Z "/><text fill="#000000" font-family="sans-serif" font-size="4.8" font-style="italic" lengthAdjust="spacingAndGlyphs" textLength="55.2" x="668" y="92.2141">ApacheComponentType</text><line style="stroke: #A80036; stroke-width: 0.6000000000000001;" x1="656.8" x2="724" y1="96.8" y2="96.8"/><line style="stroke: #A80036; stroke-width: 0.6000000000000001;" x1="656.8" x2="724" y1="100" y2="100"/><!--MD5=[6aab0676cf34802cefb399a4f3777211]
class ComponentType--><rect fill="#FEFECE" filter="url(#f1wnnbiwcc3jrw)" height="19.2" id="ComponentType" style="stroke: #A80036; stroke-width: 0.6000000000000001;" width="50.8" x="584.6" y="127.2"/><ellipse cx="590.6" cy="133.6" fill="#ADD1B2" rx="4.4" ry="4.4" style="stroke: #A80036; stroke-width: 0.4;"/><path d="M591.5893,136.0572 Q591.3568,136.1768 591.1012,136.2365 Q590.8455,136.2963 590.5633,136.2963 Q589.5605,136.2963 589.0326,135.6355 Q588.5047,134.9748 588.5047,133.7264 Q588.5047,132.4746 589.0326,131.8139 Q589.5605,131.1531 590.5633,131.1531 Q590.8455,131.1531 591.1045,131.2129 Q591.3635,131.2727 591.5893,131.3922 L591.5893,132.4813 Q591.3369,132.2488 591.0995,132.1409 Q590.8621,132.033 590.6098,132.033 Q590.0719,132.033 589.7979,132.4597 Q589.524,132.8863 589.524,133.7264 Q589.524,134.5631 589.7979,134.9897 Q590.0719,135.4164 590.6098,135.4164 Q590.8621,135.4164 591.0995,135.3085 Q591.3369,135.2006 591.5893,134.9682 Z "/><text fill="#000000" font-family="sans-serif" font-size="4.8" lengthAdjust="spacingAndGlyphs" textLength="38" x="596.2" y="135.4141">ComponentType</text><line style="stroke: #A80036; stroke-width: 0.6000000000000001;" x1="585" x2="635" y1="140" y2="140"/><line style="stroke: #A80036; stroke-width: 0.6000000000000001;" x1="585" x2="635" y1="143.2" y2="143.2"/><!--MD5=[2c15e22271967746aa234cb33ed16f50]
class FlumeComponentType--><rect fill="#FEFECE" filter="url(#f1wnnbiwcc3jrw)" height="19.2" id="FlumeComponentType" style="stroke: #A80036; stroke-width: 0.6000000000000001;" width="64.4" x="577.8" y="84"/><ellipse cx="583.8" cy="90.4" fill="#B4A7E5" rx="4.4" ry="4.4" style="stroke: #A80036; stroke-width: 0.4;"/><path d="M582.3711,88.9061 L582.3711,88.0428 L585.3229,88.0428 L585.3229,88.9061 L584.3367,88.9061 L584.3367,92.1367 L585.3229,92.1367 L585.3229,93 L582.3711,93 L582.3711,92.1367 L583.3572,92.1367 L583.3572,88.9061 Z "/><text fill="#000000" font-family="sans-serif" font-size="4.8" font-style="italic" lengthAdjust="spacingAndGlyphs" textLength="51.6" x="589.4" y="92.2141">FlumeComponentType</text><line style="stroke: #A80036; stroke-width: 0.6000000000000001;" x1="578.2" x2="641.8" y1="96.8" y2="96.8"/><line style="stroke: #A80036; stroke-width: 0.6000000000000001;" x1="578.2" x2="641.8" y1="100" y2="100"/><!--MD5=[12b3728cefd2cecf6d03bbaf002d86fa]
class MongoComponentType--><rect fill="#FEFECE" filter="url(#f1wnnbiwcc3jrw)" height="19.2" id="MongoComponentType" style="stroke: #A80036; stroke-width: 0.6000000000000001;" width="66" x="497.8" y="84"/><ellipse cx="503.8" cy="90.4" fill="#B4A7E5" rx="4.4" ry="4.4" style="stroke: #A80036; stroke-width: 0.4;"/><path d="M502.3711,88.9061 L502.3711,88.0428 L505.3229,88.0428 L505.3229,88.9061 L504.3367,88.9061 L504.3367,92.1367 L505.3229,92.1367 L505.3229,93 L502.3711,93 L502.3711,92.1367 L503.3572,92.1367 L503.3572,88.9061 Z "/><text fill="#000000" font-family="sans-serif" font-size="4.8" font-style="italic" lengthAdjust="spacingAndGlyphs" textLength="53.2" x="509.4" y="92.2141">MongoComponentType</text><line style="stroke: #A80036; stroke-width: 0.6000000000000001;" x1="498.2" x2="563.4" y1="96.8" y2="96.8"/><line style="stroke: #A80036; stroke-width: 0.6000000000000001;" x1="498.2" x2="563.4" y1="100" y2="100"/><!--MD5=[d9c25b037857f786f9571b78f5523ada]
class MySQLComponentType--><rect fill="#FEFECE" filter="url(#f1wnnbiwcc3jrw)" height="19.2" id="MySQLComponentType" style="stroke: #A80036; stroke-width: 0.6000000000000001;" width="65.6" x="418" y="84"/><ellipse cx="424" cy="90.4" fill="#B4A7E5" rx="4.4" ry="4.4" style="stroke: #A80036; stroke-width: 0.4;"/><path d="M422.5711,88.9061 L422.5711,88.0428 L425.5229,88.0428 L425.5229,88.9061 L424.5367,88.9061 L424.5367,92.1367 L425.5229,92.1367 L425.5229,93 L422.5711,93 L422.5711,92.1367 L423.5572,92.1367 L423.5572,88.9061 Z "/><text fill="#000000" font-family="sans-serif" font-size="4.8" font-style="italic" lengthAdjust="spacingAndGlyphs" textLength="52.8" x="429.6" y="92.2141">MySQLComponentType</text><line style="stroke: #A80036; stroke-width: 0.6000000000000001;" x1="418.4" x2="483.2" y1="96.8" y2="96.8"/><line style="stroke: #A80036; stroke-width: 0.6000000000000001;" x1="418.4" x2="483.2" y1="100" y2="100"/><!--MD5=[e8ddf895a8f5338125f9aca9fed822b7]
class NginxComponentType--><rect fill="#FEFECE" filter="url(#f1wnnbiwcc3jrw)" height="19.2" id="NginxComponentType" style="stroke: #A80036; stroke-width: 0.6000000000000001;" width="64" x="340" y="84"/><ellipse cx="346" cy="90.4" fill="#B4A7E5" rx="4.4" ry="4.4" style="stroke: #A80036; stroke-width: 0.4;"/><path d="M344.5711,88.9061 L344.5711,88.0428 L347.5229,88.0428 L347.5229,88.9061 L346.5367,88.9061 L346.5367,92.1367 L347.5229,92.1367 L347.5229,93 L344.5711,93 L344.5711,92.1367 L345.5572,92.1367 L345.5572,88.9061 Z "/><text fill="#000000" font-family="sans-serif" font-size="4.8" font-style="italic" lengthAdjust="spacingAndGlyphs" textLength="51.2" x="351.6" y="92.2141">NginxComponentType</text><line style="stroke: #A80036; stroke-width: 0.6000000000000001;" x1="340.4" x2="403.6" y1="96.8" y2="96.8"/><line style="stroke: #A80036; stroke-width: 0.6000000000000001;" x1="340.4" x2="403.6" y1="100" y2="100"/><!--MD5=[e62c55004cdcb7790739d1e1a63fda53]
class PrometheusComponentType--><rect fill="#FEFECE" filter="url(#f1wnnbiwcc3jrw)" height="19.2" id="PrometheusComponentType" style="stroke: #A80036; stroke-width: 0.6000000000000001;" width="78" x="820.6" y="84"/><ellipse cx="826.6" cy="90.4" fill="#B4A7E5" rx="4.4" ry="4.4" style="stroke: #A80036; stroke-width: 0.4;"/><path d="M825.1711,88.9061 L825.1711,88.0428 L828.1229,88.0428 L828.1229,88.9061 L827.1367,88.9061 L827.1367,92.1367 L828.1229,92.1367 L828.1229,93 L825.1711,93 L825.1711,92.1367 L826.1572,92.1367 L826.1572,88.9061 Z "/><text fill="#000000" font-family="sans-serif" font-size="4.8" font-style="italic" lengthAdjust="spacingAndGlyphs" textLength="65.2" x="832.2" y="92.2141">PrometheusComponentType</text><line style="stroke: #A80036; stroke-width: 0.6000000000000001;" x1="821" x2="898.2" y1="96.8" y2="96.8"/><line style="stroke: #A80036; stroke-width: 0.6000000000000001;" x1="821" x2="898.2" y1="100" y2="100"/><!--MD5=[6e388ed35fc820a4e1f6edfb890f3f7f]
class TomcatComponentType--><rect fill="#FEFECE" filter="url(#f1wnnbiwcc3jrw)" height="19.2" id="TomcatComponentType" style="stroke: #A80036; stroke-width: 0.6000000000000001;" width="68" x="738.4" y="84"/><ellipse cx="744.4" cy="90.4" fill="#B4A7E5" rx="4.4" ry="4.4" style="stroke: #A80036; stroke-width: 0.4;"/><path d="M742.9711,88.9061 L742.9711,88.0428 L745.9229,88.0428 L745.9229,88.9061 L744.9367,88.9061 L744.9367,92.1367 L745.9229,92.1367 L745.9229,93 L742.9711,93 L742.9711,92.1367 L743.9572,92.1367 L743.9572,88.9061 Z "/><text fill="#000000" font-family="sans-serif" font-size="4.8" font-style="italic" lengthAdjust="spacingAndGlyphs" textLength="55.2" x="750" y="92.2141">TomcatComponentType</text><line style="stroke: #A80036; stroke-width: 0.6000000000000001;" x1="738.8" x2="806" y1="96.8" y2="96.8"/><line style="stroke: #A80036; stroke-width: 0.6000000000000001;" x1="738.8" x2="806" y1="100" y2="100"/><!--MD5=[7b474f57b060efc0bd855536e381b036]
class Apache--><rect fill="#FEFECE" filter="url(#f1wnnbiwcc3jrw)" height="19.2" id="Apache" style="stroke: #A80036; stroke-width: 0.6000000000000001;" width="30" x="189.4" y="40.8"/><ellipse cx="195.4" cy="47.2" fill="#ADD1B2" rx="4.4" ry="4.4" style="stroke: #A80036; stroke-width: 0.4;"/><path d="M196.3893,49.6572 Q196.1568,49.7768 195.9012,49.8365 Q195.6455,49.8963 195.3633,49.8963 Q194.3605,49.8963 193.8326,49.2355 Q193.3047,48.5748 193.3047,47.3264 Q193.3047,46.0746 193.8326,45.4139 Q194.3605,44.7531 195.3633,44.7531 Q195.6455,44.7531 195.9045,44.8129 Q196.1635,44.8727 196.3893,44.9922 L196.3893,46.0813 Q196.1369,45.8488 195.8995,45.7409 Q195.6621,45.633 195.4098,45.633 Q194.8719,45.633 194.5979,46.0597 Q194.324,46.4863 194.324,47.3264 Q194.324,48.1631 194.5979,48.5897 Q194.8719,49.0164 195.4098,49.0164 Q195.6621,49.0164 195.8995,48.9085 Q196.1369,48.8006 196.3893,48.5682 Z "/><text fill="#000000" font-family="sans-serif" font-size="4.8" lengthAdjust="spacingAndGlyphs" textLength="17.2" x="201" y="49.0141">Apache</text><line style="stroke: #A80036; stroke-width: 0.6000000000000001;" x1="189.8" x2="219" y1="53.6" y2="53.6"/><line style="stroke: #A80036; stroke-width: 0.6000000000000001;" x1="189.8" x2="219" y1="56.8" y2="56.8"/><!--MD5=[d378ae02ecdbb38086d3d2ca35af0bc8]
class ComponentImpl--><rect fill="#FEFECE" filter="url(#f1wnnbiwcc3jrw)" height="19.2" id="ComponentImpl" style="stroke: #A80036; stroke-width: 0.6000000000000001;" width="49.2" x="137.4" y="84"/><ellipse cx="143.4" cy="90.4" fill="#ADD1B2" rx="4.4" ry="4.4" style="stroke: #A80036; stroke-width: 0.4;"/><path d="M144.3893,92.8572 Q144.1568,92.9768 143.9012,93.0365 Q143.6455,93.0963 143.3633,93.0963 Q142.3605,93.0963 141.8326,92.4355 Q141.3047,91.7748 141.3047,90.5264 Q141.3047,89.2746 141.8326,88.6139 Q142.3605,87.9531 143.3633,87.9531 Q143.6455,87.9531 143.9045,88.0129 Q144.1635,88.0727 144.3893,88.1922 L144.3893,89.2813 Q144.1369,89.0488 143.8995,88.9409 Q143.6621,88.833 143.4098,88.833 Q142.8719,88.833 142.5979,89.2597 Q142.324,89.6863 142.324,90.5264 Q142.324,91.3631 142.5979,91.7897 Q142.8719,92.2164 143.4098,92.2164 Q143.6621,92.2164 143.8995,92.1085 Q144.1369,92.0006 144.3893,91.7682 Z "/><text fill="#000000" font-family="sans-serif" font-size="4.8" lengthAdjust="spacingAndGlyphs" textLength="36.4" x="149" y="92.2141">ComponentImpl</text><line style="stroke: #A80036; stroke-width: 0.6000000000000001;" x1="137.8" x2="186.2" y1="96.8" y2="96.8"/><line style="stroke: #A80036; stroke-width: 0.6000000000000001;" x1="137.8" x2="186.2" y1="100" y2="100"/><!--MD5=[0ee8d176b4a55619c6f1a3a0318a0e07]
class Flume--><rect fill="#FEFECE" filter="url(#f1wnnbiwcc3jrw)" height="19.2" id="Flume" style="stroke: #A80036; stroke-width: 0.6000000000000001;" width="26.4" x="148.8" y="40.8"/><ellipse cx="154.8" cy="47.2" fill="#ADD1B2" rx="4.4" ry="4.4" style="stroke: #A80036; stroke-width: 0.4;"/><path d="M155.7893,49.6572 Q155.5568,49.7768 155.3012,49.8365 Q155.0455,49.8963 154.7633,49.8963 Q153.7605,49.8963 153.2326,49.2355 Q152.7047,48.5748 152.7047,47.3264 Q152.7047,46.0746 153.2326,45.4139 Q153.7605,44.7531 154.7633,44.7531 Q155.0455,44.7531 155.3045,44.8129 Q155.5635,44.8727 155.7893,44.9922 L155.7893,46.0813 Q155.5369,45.8488 155.2995,45.7409 Q155.0621,45.633 154.8098,45.633 Q154.2719,45.633 153.9979,46.0597 Q153.724,46.4863 153.724,47.3264 Q153.724,48.1631 153.9979,48.5897 Q154.2719,49.0164 154.8098,49.0164 Q155.0621,49.0164 155.2995,48.9085 Q155.5369,48.8006 155.7893,48.5682 Z "/><text fill="#000000" font-family="sans-serif" font-size="4.8" lengthAdjust="spacingAndGlyphs" textLength="13.6" x="160.4" y="49.0141">Flume</text><line style="stroke: #A80036; stroke-width: 0.6000000000000001;" x1="149.2" x2="174.8" y1="53.6" y2="53.6"/><line style="stroke: #A80036; stroke-width: 0.6000000000000001;" x1="149.2" x2="174.8" y1="56.8" y2="56.8"/><!--MD5=[89faae3088ffc91d0cdd6eaf6f032b9f]
class Mongo--><rect fill="#FEFECE" filter="url(#f1wnnbiwcc3jrw)" height="19.2" id="Mongo" style="stroke: #A80036; stroke-width: 0.6000000000000001;" width="28" x="106.8" y="40.8"/><ellipse cx="112.8" cy="47.2" fill="#ADD1B2" rx="4.4" ry="4.4" style="stroke: #A80036; stroke-width: 0.4;"/><path d="M113.7893,49.6572 Q113.5568,49.7768 113.3012,49.8365 Q113.0455,49.8963 112.7633,49.8963 Q111.7605,49.8963 111.2326,49.2355 Q110.7047,48.5748 110.7047,47.3264 Q110.7047,46.0746 111.2326,45.4139 Q111.7605,44.7531 112.7633,44.7531 Q113.0455,44.7531 113.3045,44.8129 Q113.5635,44.8727 113.7893,44.9922 L113.7893,46.0813 Q113.5369,45.8488 113.2995,45.7409 Q113.0621,45.633 112.8098,45.633 Q112.2719,45.633 111.9979,46.0597 Q111.724,46.4863 111.724,47.3264 Q111.724,48.1631 111.9979,48.5897 Q112.2719,49.0164 112.8098,49.0164 Q113.0621,49.0164 113.2995,48.9085 Q113.5369,48.8006 113.7893,48.5682 Z "/><text fill="#000000" font-family="sans-serif" font-size="4.8" lengthAdjust="spacingAndGlyphs" textLength="15.2" x="118.4" y="49.0141">Mongo</text><line style="stroke: #A80036; stroke-width: 0.6000000000000001;" x1="107.2" x2="134.4" y1="53.6" y2="53.6"/><line style="stroke: #A80036; stroke-width: 0.6000000000000001;" x1="107.2" x2="134.4" y1="56.8" y2="56.8"/><!--MD5=[277f00b2d0a8ec077b4e66c8584505d7]
class MySQL--><rect fill="#FEFECE" filter="url(#f1wnnbiwcc3jrw)" height="19.2" id="MySQL" style="stroke: #A80036; stroke-width: 0.6000000000000001;" width="27.6" x="65" y="40.8"/><ellipse cx="71" cy="47.2" fill="#ADD1B2" rx="4.4" ry="4.4" style="stroke: #A80036; stroke-width: 0.4;"/><path d="M71.9893,49.6572 Q71.7568,49.7768 71.5012,49.8365 Q71.2455,49.8963 70.9633,49.8963 Q69.9605,49.8963 69.4326,49.2355 Q68.9047,48.5748 68.9047,47.3264 Q68.9047,46.0746 69.4326,45.4139 Q69.9605,44.7531 70.9633,44.7531 Q71.2455,44.7531 71.5045,44.8129 Q71.7635,44.8727 71.9893,44.9922 L71.9893,46.0813 Q71.7369,45.8488 71.4995,45.7409 Q71.2621,45.633 71.0098,45.633 Q70.4719,45.633 70.1979,46.0597 Q69.924,46.4863 69.924,47.3264 Q69.924,48.1631 70.1979,48.5897 Q70.4719,49.0164 71.0098,49.0164 Q71.2621,49.0164 71.4995,48.9085 Q71.7369,48.8006 71.9893,48.5682 Z "/><text fill="#000000" font-family="sans-serif" font-size="4.8" lengthAdjust="spacingAndGlyphs" textLength="14.8" x="76.6" y="49.0141">MySQL</text><line style="stroke: #A80036; stroke-width: 0.6000000000000001;" x1="65.4" x2="92.2" y1="53.6" y2="53.6"/><line style="stroke: #A80036; stroke-width: 0.6000000000000001;" x1="65.4" x2="92.2" y1="56.8" y2="56.8"/><!--MD5=[e3edecefd47999d1be953f28cfb299c6]
class Nginx--><rect fill="#FEFECE" filter="url(#f1wnnbiwcc3jrw)" height="19.2" id="Nginx" style="stroke: #A80036; stroke-width: 0.6000000000000001;" width="26" x="25" y="40.8"/><ellipse cx="31" cy="47.2" fill="#ADD1B2" rx="4.4" ry="4.4" style="stroke: #A80036; stroke-width: 0.4;"/><path d="M31.9893,49.6572 Q31.7568,49.7768 31.5012,49.8365 Q31.2455,49.8963 30.9633,49.8963 Q29.9605,49.8963 29.4326,49.2355 Q28.9047,48.5748 28.9047,47.3264 Q28.9047,46.0746 29.4326,45.4139 Q29.9605,44.7531 30.9633,44.7531 Q31.2455,44.7531 31.5045,44.8129 Q31.7635,44.8727 31.9893,44.9922 L31.9893,46.0813 Q31.7369,45.8488 31.4995,45.7409 Q31.2621,45.633 31.0098,45.633 Q30.4719,45.633 30.1979,46.0597 Q29.924,46.4863 29.924,47.3264 Q29.924,48.1631 30.1979,48.5897 Q30.4719,49.0164 31.0098,49.0164 Q31.2621,49.0164 31.4995,48.9085 Q31.7369,48.8006 31.9893,48.5682 Z "/><text fill="#000000" font-family="sans-serif" font-size="4.8" lengthAdjust="spacingAndGlyphs" textLength="13.2" x="36.6" y="49.0141">Nginx</text><line style="stroke: #A80036; stroke-width: 0.6000000000000001;" x1="25.4" x2="50.6" y1="53.6" y2="53.6"/><line style="stroke: #A80036; stroke-width: 0.6000000000000001;" x1="25.4" x2="50.6" y1="56.8" y2="56.8"/><!--MD5=[b3c96aff0a20d1e2b57ef44e2a3ed28d]
class Prometheus--><rect fill="#FEFECE" filter="url(#f1wnnbiwcc3jrw)" height="19.2" id="Prometheus" style="stroke: #A80036; stroke-width: 0.6000000000000001;" width="40" x="277.6" y="40.8"/><ellipse cx="283.6" cy="47.2" fill="#ADD1B2" rx="4.4" ry="4.4" style="stroke: #A80036; stroke-width: 0.4;"/><path d="M284.5893,49.6572 Q284.3568,49.7768 284.1012,49.8365 Q283.8455,49.8963 283.5633,49.8963 Q282.5605,49.8963 282.0326,49.2355 Q281.5047,48.5748 281.5047,47.3264 Q281.5047,46.0746 282.0326,45.4139 Q282.5605,44.7531 283.5633,44.7531 Q283.8455,44.7531 284.1045,44.8129 Q284.3635,44.8727 284.5893,44.9922 L284.5893,46.0813 Q284.3369,45.8488 284.0995,45.7409 Q283.8621,45.633 283.6098,45.633 Q283.0719,45.633 282.7979,46.0597 Q282.524,46.4863 282.524,47.3264 Q282.524,48.1631 282.7979,48.5897 Q283.0719,49.0164 283.6098,49.0164 Q283.8621,49.0164 284.0995,48.9085 Q284.3369,48.8006 284.5893,48.5682 Z "/><text fill="#000000" font-family="sans-serif" font-size="4.8" lengthAdjust="spacingAndGlyphs" textLength="27.2" x="289.2" y="49.0141">Prometheus</text><line style="stroke: #A80036; stroke-width: 0.6000000000000001;" x1="278" x2="317.2" y1="53.6" y2="53.6"/><line style="stroke: #A80036; stroke-width: 0.6000000000000001;" x1="278" x2="317.2" y1="56.8" y2="56.8"/><!--MD5=[a848cec6733027c5230874fe56ddcab1]
class Tomcat--><rect fill="#FEFECE" filter="url(#f1wnnbiwcc3jrw)" height="19.2" id="Tomcat" style="stroke: #A80036; stroke-width: 0.6000000000000001;" width="30" x="233.4" y="40.8"/><ellipse cx="239.4" cy="47.2" fill="#ADD1B2" rx="4.4" ry="4.4" style="stroke: #A80036; stroke-width: 0.4;"/><path d="M240.3893,49.6572 Q240.1568,49.7768 239.9012,49.8365 Q239.6455,49.8963 239.3633,49.8963 Q238.3605,49.8963 237.8326,49.2355 Q237.3047,48.5748 237.3047,47.3264 Q237.3047,46.0746 237.8326,45.4139 Q238.3605,44.7531 239.3633,44.7531 Q239.6455,44.7531 239.9045,44.8129 Q240.1635,44.8727 240.3893,44.9922 L240.3893,46.0813 Q240.1369,45.8488 239.8995,45.7409 Q239.6621,45.633 239.4098,45.633 Q238.8719,45.633 238.5979,46.0597 Q238.324,46.4863 238.324,47.3264 Q238.324,48.1631 238.5979,48.5897 Q238.8719,49.0164 239.4098,49.0164 Q239.6621,49.0164 239.8995,48.9085 Q240.1369,48.8006 240.3893,48.5682 Z "/><text fill="#000000" font-family="sans-serif" font-size="4.8" lengthAdjust="spacingAndGlyphs" textLength="17.2" x="245" y="49.0141">Tomcat</text><line style="stroke: #A80036; stroke-width: 0.6000000000000001;" x1="233.8" x2="263" y1="53.6" y2="53.6"/><line style="stroke: #A80036; stroke-width: 0.6000000000000001;" x1="233.8" x2="263" y1="56.8" y2="56.8"/><!--MD5=[77225a107f69ca2d5bcfbf3e4eddc97b]
link ApacheComponentType to ComponentType--><path d="M672.956,103.2 C661.772,109.096 647.088,116.84 634.712,123.368 " fill="none" id="ApacheComponentType-&gt;ComponentType" style="stroke: #A80036; stroke-width: 0.4;"/><polygon fill="none" points="635.932,125.888,627.552,127.144,633.32,120.936,635.932,125.888" style="stroke: #A80036; stroke-width: 0.4;"/><!--MD5=[b973b17f573bec280edcfd54cd4784f6]
link FlumeComponentType to ComponentType--><path d="M610,103.2 C610,107.836 610,113.612 610,119.04 " fill="none" id="FlumeComponentType-&gt;ComponentType" style="stroke: #A80036; stroke-width: 0.4;"/><polygon fill="none" points="612.8,119.072,610,127.072,607.2,119.072,612.8,119.072" style="stroke: #A80036; stroke-width: 0.4;"/><!--MD5=[6f3dfe623ed01ce90d403a891f6a10bd]
link MongoComponentType to ComponentType--><path d="M547.984,103.2 C559,109.096 573.464,116.84 585.656,123.368 " fill="none" id="MongoComponentType-&gt;ComponentType" style="stroke: #A80036; stroke-width: 0.4;"/><polygon fill="none" points="586.98,120.9,592.712,127.144,584.336,125.836,586.98,120.9" style="stroke: #A80036; stroke-width: 0.4;"/><!--MD5=[70d26aac7b257b84f5c3b27ad4edd68c]
link MySQLComponentType to ComponentType--><path d="M468.144,103.28 C475.04,106.672 483.144,110.284 490.8,112.8 C519.056,122.08 552.336,128.296 576.544,132.008 " fill="none" id="MySQLComponentType-&gt;ComponentType" style="stroke: #A80036; stroke-width: 0.4;"/><polygon fill="none" points="577.04,129.252,584.544,133.196,576.22,134.792,577.04,129.252" style="stroke: #A80036; stroke-width: 0.4;"/><!--MD5=[bb305f496f9e841b22b0d9eb272947ee]
link NginxComponentType to ComponentType--><path d="M388.116,103.208 C395.02,106.756 403.3,110.504 411.2,112.8 C467.68,129.204 536.352,134.232 576.42,135.756 " fill="none" id="NginxComponentType-&gt;ComponentType" style="stroke: #A80036; stroke-width: 0.4;"/><polygon fill="none" points="576.624,132.964,584.524,136.032,576.432,138.56,576.624,132.964" style="stroke: #A80036; stroke-width: 0.4;"/><!--MD5=[4e19ec031a1487465b5f07b212df1f83]
link PrometheusComponentType to ComponentType--><path d="M840.412,103.208 C832.308,106.736 822.664,110.468 813.6,112.8 C754.98,127.872 684.376,133.336 643.592,135.304 " fill="none" id="PrometheusComponentType-&gt;ComponentType" style="stroke: #A80036; stroke-width: 0.4;"/><polygon fill="none" points="643.596,138.104,635.48,135.668,643.344,132.512,643.596,138.104" style="stroke: #A80036; stroke-width: 0.4;"/><!--MD5=[c5f39d4f0cc6ac6e2a544c777c491c10]
link TomcatComponentType to ComponentType--><path d="M754.796,103.236 C747.736,106.64 739.432,110.276 731.6,112.8 C702.5,122.176 668.216,128.42 643.48,132.116 " fill="none" id="TomcatComponentType-&gt;ComponentType" style="stroke: #A80036; stroke-width: 0.4;"/><polygon fill="none" points="643.8,134.896,635.48,133.272,642.996,129.356,643.8,134.896" style="stroke: #A80036; stroke-width: 0.4;"/><!--MD5=[5d5adcb13aed2138f4c382d5fb545ac8]
link Apache to ComponentImpl--><path d="M195.2,60 C189.904,65.296 183.116,72.084 177.06,78.14 " fill="none" id="Apache-&gt;ComponentImpl" style="stroke: #A80036; stroke-width: 0.4;"/><polygon fill="none" points="178.964,80.196,171.328,83.872,175.004,76.236,178.964,80.196" style="stroke: #A80036; stroke-width: 0.4;"/><!--MD5=[f0f3461d918c5d10c0fec0cbba86bdd1]
link Apache to ApacheComponentType--><path d="M219.428,57.96 C221.72,58.792 224.092,59.516 226.4,60 C272.388,69.616 604.22,53.232 649.2,66.8 C657.74,69.376 666.204,74.28 673.22,79.168 " fill="none" id="Apache-&gt;ApacheComponentType" style="stroke: #A80036; stroke-width: 0.4; stroke-dasharray: 7.0,7.0;"/><polygon fill="none" points="674.936,76.956,679.704,83.968,671.608,81.456,674.936,76.956" style="stroke: #A80036; stroke-width: 0.4;"/><!--MD5=[b5f81163bef9ff22ac154ce6a79fec8c]
link Flume to ComponentImpl--><path d="M162,60 C162,64.636 162,70.412 162,75.84 " fill="none" id="Flume-&gt;ComponentImpl" style="stroke: #A80036; stroke-width: 0.4;"/><polygon fill="none" points="164.8,75.872,162,83.872,159.2,75.872,164.8,75.872" style="stroke: #A80036; stroke-width: 0.4;"/><!--MD5=[bba9e396edbb738ad5d489ab6c0c2ef2]
link Flume to FlumeComponentType--><path d="M175.228,57.688 C177.564,58.636 180.012,59.464 182.4,60 C224.516,69.444 529.632,53.836 570.8,66.8 C578.932,69.36 586.92,74.192 593.544,79.028 " fill="none" id="Flume-&gt;FlumeComponentType" style="stroke: #A80036; stroke-width: 0.4; stroke-dasharray: 7.0,7.0;"/><polygon fill="none" points="595.304,76.852,599.896,83.976,591.864,81.272,595.304,76.852" style="stroke: #A80036; stroke-width: 0.4;"/><!--MD5=[1f63d19a299487a33e25954c8ede7e7c]
link Mongo to ComponentImpl--><path d="M129.74,60 C134.832,65.244 141.344,71.944 147.184,77.952 " fill="none" id="Mongo-&gt;ComponentImpl" style="stroke: #A80036; stroke-width: 0.4;"/><polygon fill="none" points="149.368,76.184,152.936,83.872,145.352,80.084,149.368,76.184" style="stroke: #A80036; stroke-width: 0.4;"/><!--MD5=[17961091eaef59b7671bb25ab4c12a30]
link Mongo to MongoComponentType--><path d="M134.868,57.908 C137.072,58.76 139.364,59.504 141.6,60 C179.488,68.392 453.744,55.28 490.8,66.8 C499.1,69.38 507.284,74.248 514.068,79.112 " fill="none" id="Mongo-&gt;MongoComponentType" style="stroke: #A80036; stroke-width: 0.4; stroke-dasharray: 7.0,7.0;"/><polygon fill="none" points="515.792,76.904,520.456,83.98,512.396,81.356,515.792,76.904" style="stroke: #A80036; stroke-width: 0.4;"/><!--MD5=[3390176dad2fa5998e7e966bb7a3b9e8]
link MySQL to ComponentImpl--><path d="M92.724,57.896 C104.66,63.98 122.16,72.896 136.584,80.248 " fill="none" id="MySQL-&gt;ComponentImpl" style="stroke: #A80036; stroke-width: 0.4;"/><polygon fill="none" points="137.944,77.8,143.8,83.924,135.404,82.788,137.944,77.8" style="stroke: #A80036; stroke-width: 0.4;"/><!--MD5=[5b7ab52a4f1f32d7f6488425f0f7099e]
link MySQL to MySQLComponentType--><path d="M92.64,57.816 C94.916,58.708 97.288,59.484 99.6,60 C133.404,67.528 378.168,56.404 411.2,66.8 C419.388,69.376 427.456,74.212 434.148,79.048 " fill="none" id="MySQL-&gt;MySQLComponentType" style="stroke: #A80036; stroke-width: 0.4; stroke-dasharray: 7.0,7.0;"/><polygon fill="none" points="435.94,76.892,440.572,83.988,432.524,81.332,435.94,76.892" style="stroke: #A80036; stroke-width: 0.4;"/><!--MD5=[9be5f5cac62e6aa5460c29242692b884]
link Nginx to ComponentImpl--><path d="M51.028,57.068 C53.328,58.096 55.72,59.116 58,60 C81.608,69.16 108.9,77.8 129.6,83.968 " fill="none" id="Nginx-&gt;ComponentImpl" style="stroke: #A80036; stroke-width: 0.4;"/><polygon fill="none" points="130.448,81.3,137.332,86.252,128.864,86.672,130.448,81.3" style="stroke: #A80036; stroke-width: 0.4;"/><!--MD5=[4fe2546d245bb343cb65848a7b5390b8]
link Nginx to NginxComponentType--><path d="M51.072,57.72 C53.328,58.648 55.692,59.464 58,60 C115.596,73.384 266.92,51.36 324,66.8 C333.94,69.488 344.06,74.628 352.428,79.66 " fill="none" id="Nginx-&gt;NginxComponentType" style="stroke: #A80036; stroke-width: 0.4; stroke-dasharray: 7.0,7.0;"/><polygon fill="none" points="354.016,77.352,359.284,83.992,351.024,82.084,354.016,77.352" style="stroke: #A80036; stroke-width: 0.4;"/><!--MD5=[7d9bdffa314226fdd3277a4710236270]
link Prometheus to ComponentImpl--><path d="M277.568,57.648 C275.156,58.452 272.724,59.252 270.4,60 C244.928,68.208 215.936,77.06 194.348,83.56 " fill="none" id="Prometheus-&gt;ComponentImpl" style="stroke: #A80036; stroke-width: 0.4;"/><polygon fill="none" points="195.072,86.268,186.604,85.888,193.46,80.904,195.072,86.268" style="stroke: #A80036; stroke-width: 0.4;"/><!--MD5=[bb1b41f8c96395ded106b9f80364f844]
link Prometheus to PrometheusComponentType--><path d="M317.656,50.848 C406.864,51.132 765.336,53.128 813.6,66.8 C823.028,69.472 832.568,74.484 840.496,79.428 " fill="none" id="Prometheus-&gt;PrometheusComponentType" style="stroke: #A80036; stroke-width: 0.4; stroke-dasharray: 7.0,7.0;"/><polygon fill="none" points="842.128,77.148,847.276,83.884,839.052,81.828,842.128,77.148" style="stroke: #A80036; stroke-width: 0.4;"/><!--MD5=[31a03193eb327ce126aee0ea465433f8]
link Tomcat to ComponentImpl--><path d="M233.352,58.184 C220.86,64.316 202.808,73.176 187.988,80.448 " fill="none" id="Tomcat-&gt;ComponentImpl" style="stroke: #A80036; stroke-width: 0.4;"/><polygon fill="none" points="189.208,82.968,180.796,83.976,186.744,77.94,189.208,82.968" style="stroke: #A80036; stroke-width: 0.4;"/><!--MD5=[25203e1e87d42c12fd3e309fff2ebc58]
link Tomcat to TomcatComponentType--><path d="M263.424,57.964 C265.716,58.796 268.088,59.52 270.4,60 C320.572,70.452 682.556,51.924 731.6,66.8 C740.076,69.372 748.464,74.276 755.408,79.164 " fill="none" id="Tomcat-&gt;TomcatComponentType" style="stroke: #A80036; stroke-width: 0.4; stroke-dasharray: 7.0,7.0;"/><polygon fill="none" points="757.096,76.928,761.824,83.964,753.74,81.412,757.096,76.928" style="stroke: #A80036; stroke-width: 0.4;"/><!--MD5=[7bd53f05188ad4980e987a15b7b6bec1]
@startuml
package componentprovider{
package api{
Interface ApacheComponentType
ApacheComponentType - -|> ComponentType

Interface FlumeComponentType
FlumeComponentType - -|> ComponentType

Interface MongoComponentType
MongoComponentType - -|> ComponentType

Interface MySQLComponentType
MySQLComponentType - -|> ComponentType

Interface NginxComponentType
NginxComponentType - -|> ComponentType

Interface PrometheusComponentType
PrometheusComponentType - -|> ComponentType

Interface TomcatComponentType
TomcatComponentType - -|> ComponentType

}
package impl{
Class Apache
Apache - -|> ComponentImpl
Apache ..|> ApacheComponentType

Class Flume
Flume - -|> ComponentImpl
Flume ..|> FlumeComponentType

Class Mongo
Mongo - -|> ComponentImpl
Mongo ..|> MongoComponentType

Class MySQL
MySQL - -|> ComponentImpl
MySQL ..|> MySQLComponentType

Class Nginx
Nginx - -|> ComponentImpl
Nginx ..|> NginxComponentType

Class Prometheus
Prometheus - -|> ComponentImpl
Prometheus ..|> PrometheusComponentType

Class Tomcat
Tomcat - -|> ComponentImpl
Tomcat ..|> TomcatComponentType

}
}

@enduml

PlantUML version 1.2020.03beta6(Unknown compile time)
(GPL source distribution)
Java Runtime: OpenJDK Runtime Environment
JVM: OpenJDK 64-Bit Server VM
Java Version: 11.0.4+10-b304.77
Operating System: Mac OS X
Default Encoding: UTF-8
Language: fr
Country: FR
--></g></svg>