<?xml version="1.0" encoding="UTF-8" standalone="no"?><svg xmlns="http://www.w3.org/2000/svg" xmlns:xlink="http://www.w3.org/1999/xlink" contentScriptType="application/ecmascript" contentStyleType="text/css" height="190.4px" preserveAspectRatio="none" style="width:718px;height:190px;" version="1.1" viewBox="0 0 718 190" width="718.8px" zoomAndPan="magnify"><defs><filter height="300%" id="f88ox93glqemf" width="300%" x="-1" y="-1"><feGaussianBlur result="blurOut" stdDeviation="0.8"/><feColorMatrix in="blurOut" result="blurOut2" type="matrix" values="0 0 0 0 0 0 0 0 0 0 0 0 0 0 0 0 0 0 .4 0"/><feOffset dx="1.6" dy="1.6" in="blurOut2" result="blurOut3"/><feBlend in="SourceGraphic" in2="blurOut3" mode="normal"/></filter></defs><g><!--MD5=[5d76aaee51cb074650b5e33141f46c60]
cluster creation--><polygon fill="#FFFFFF" filter="url(#f88ox93glqemf)" points="8.8,9.6,34.4,9.6,37.2,18.5953,710,18.5953,710,185.6,8.8,185.6,8.8,9.6" style="stroke: #000000; stroke-width: 0.6000000000000001;"/><line style="stroke: #000000; stroke-width: 0.6000000000000001;" x1="8.8" x2="37.2" y1="18.5953" y2="18.5953"/><text fill="#000000" font-family="sans-serif" font-size="5.6" font-weight="bold" lengthAdjust="spacingAndGlyphs" textLength="23.2" x="10.4" y="15.8141">creation</text><!--MD5=[7442f3b126ee602ae02566c1a49e158a]
cluster api--><polygon fill="#FFFFFF" filter="url(#f88ox93glqemf)" points="413.2,93.2,424.4,93.2,427.2,102.1953,700.4,102.1953,700.4,176,413.2,176,413.2,93.2" style="stroke: #000000; stroke-width: 0.6000000000000001;"/><line style="stroke: #000000; stroke-width: 0.6000000000000001;" x1="413.2" x2="427.2" y1="102.1953" y2="102.1953"/><text fill="#000000" font-family="sans-serif" font-size="5.6" font-weight="bold" lengthAdjust="spacingAndGlyphs" textLength="8.8" x="414.8" y="99.4141">api</text><!--MD5=[5da745cd38cfcd5339c017b32c3539c2]
cluster cloudproviders--><polygon fill="#FFFFFF" filter="url(#f88ox93glqemf)" points="102.4,26.8,147.6,26.8,150.4,35.7953,403.6,35.7953,403.6,142.4,102.4,142.4,102.4,26.8" style="stroke: #000000; stroke-width: 0.6000000000000001;"/><line style="stroke: #000000; stroke-width: 0.6000000000000001;" x1="102.4" x2="150.4" y1="35.7953" y2="35.7953"/><text fill="#000000" font-family="sans-serif" font-size="5.6" font-weight="bold" lengthAdjust="spacingAndGlyphs" textLength="42.8" x="104" y="33.0141">cloudproviders</text><!--MD5=[5987523d85afc814e9a48b2df18d6943]
cluster amiazon--><polygon fill="#FFFFFF" filter="url(#f88ox93glqemf)" points="151.6,44,178.4,44,181.2,52.9953,394,52.9953,394,132.8,151.6,132.8,151.6,44" style="stroke: #000000; stroke-width: 0.6000000000000001;"/><line style="stroke: #000000; stroke-width: 0.6000000000000001;" x1="151.6" x2="181.2" y1="52.9953" y2="52.9953"/><text fill="#000000" font-family="sans-serif" font-size="5.6" font-weight="bold" lengthAdjust="spacingAndGlyphs" textLength="24.4" x="153.2" y="50.2141">amiazon</text><!--MD5=[cf58d37b78f149325f79356613ff3b39]
cluster impl--><polygon fill="#FFFFFF" filter="url(#f88ox93glqemf)" points="18.4,44,34,44,36.8,52.9953,92.8,52.9953,92.8,83.6,18.4,83.6,18.4,44" style="stroke: #000000; stroke-width: 0.6000000000000001;"/><line style="stroke: #000000; stroke-width: 0.6000000000000001;" x1="18.4" x2="36.8" y1="52.9953" y2="52.9953"/><text fill="#000000" font-family="sans-serif" font-size="5.6" font-weight="bold" lengthAdjust="spacingAndGlyphs" textLength="13.2" x="20" y="50.2141">impl</text><!--MD5=[39248902141859dc38e6fa0976e425ea]
class CloudProvider--><rect fill="#FEFECE" filter="url(#f88ox93glqemf)" height="19.2" id="CloudProvider" style="stroke: #A80036; stroke-width: 0.6000000000000001;" width="45.2" x="501" y="107.2"/><ellipse cx="507" cy="113.6" fill="#B4A7E5" rx="4.4" ry="4.4" style="stroke: #A80036; stroke-width: 0.4;"/><path d="M505.5711,112.1061 L505.5711,111.2428 L508.5229,111.2428 L508.5229,112.1061 L507.5367,112.1061 L507.5367,115.3367 L508.5229,115.3367 L508.5229,116.2 L505.5711,116.2 L505.5711,115.3367 L506.5572,115.3367 L506.5572,112.1061 Z "/><text fill="#000000" font-family="sans-serif" font-size="4.8" font-style="italic" lengthAdjust="spacingAndGlyphs" textLength="32.4" x="512.6" y="115.4141">CloudProvider</text><line style="stroke: #A80036; stroke-width: 0.6000000000000001;" x1="501.4" x2="545.8" y1="120" y2="120"/><line style="stroke: #A80036; stroke-width: 0.6000000000000001;" x1="501.4" x2="545.8" y1="123.2" y2="123.2"/><!--MD5=[72ce48453404acff521c9d026a35001f]
class ComponentCreator--><rect fill="#FEFECE" filter="url(#f88ox93glqemf)" height="19.2" id="ComponentCreator" style="stroke: #A80036; stroke-width: 0.6000000000000001;" width="56.4" x="560.2" y="107.2"/><ellipse cx="566.2" cy="113.6" fill="#B4A7E5" rx="4.4" ry="4.4" style="stroke: #A80036; stroke-width: 0.4;"/><path d="M564.7711,112.1061 L564.7711,111.2428 L567.7229,111.2428 L567.7229,112.1061 L566.7367,112.1061 L566.7367,115.3367 L567.7229,115.3367 L567.7229,116.2 L564.7711,116.2 L564.7711,115.3367 L565.7572,115.3367 L565.7572,112.1061 Z "/><text fill="#000000" font-family="sans-serif" font-size="4.8" font-style="italic" lengthAdjust="spacingAndGlyphs" textLength="43.6" x="571.8" y="115.4141">ComponentCreator</text><line style="stroke: #A80036; stroke-width: 0.6000000000000001;" x1="560.6" x2="616.2" y1="120" y2="120"/><line style="stroke: #A80036; stroke-width: 0.6000000000000001;" x1="560.6" x2="616.2" y1="123.2" y2="123.2"/><!--MD5=[f15e304cb7b4c4a87c8312b6955c33d9]
class ComputeNodeCreator--><rect fill="#FEFECE" filter="url(#f88ox93glqemf)" height="19.2" id="ComputeNodeCreator" style="stroke: #A80036; stroke-width: 0.6000000000000001;" width="63.2" x="630.8" y="107.2"/><ellipse cx="636.8" cy="113.6" fill="#B4A7E5" rx="4.4" ry="4.4" style="stroke: #A80036; stroke-width: 0.4;"/><path d="M635.3711,112.1061 L635.3711,111.2428 L638.3229,111.2428 L638.3229,112.1061 L637.3367,112.1061 L637.3367,115.3367 L638.3229,115.3367 L638.3229,116.2 L635.3711,116.2 L635.3711,115.3367 L636.3572,115.3367 L636.3572,112.1061 Z "/><text fill="#000000" font-family="sans-serif" font-size="4.8" font-style="italic" lengthAdjust="spacingAndGlyphs" textLength="50.4" x="642.4" y="115.4141">ComputeNodeCreator</text><line style="stroke: #A80036; stroke-width: 0.6000000000000001;" x1="631.2" x2="693.6" y1="120" y2="120"/><line style="stroke: #A80036; stroke-width: 0.6000000000000001;" x1="631.2" x2="693.6" y1="123.2" y2="123.2"/><!--MD5=[808d3dcea1bdbabebb31b4561f9730bf]
class DeploymentPlanCreator--><rect fill="#FEFECE" filter="url(#f88ox93glqemf)" height="19.2" id="DeploymentPlanCreator" style="stroke: #A80036; stroke-width: 0.6000000000000001;" width="67.2" x="419.6" y="107.2"/><ellipse cx="425.6" cy="113.6" fill="#B4A7E5" rx="4.4" ry="4.4" style="stroke: #A80036; stroke-width: 0.4;"/><path d="M424.1711,112.1061 L424.1711,111.2428 L427.1229,111.2428 L427.1229,112.1061 L426.1367,112.1061 L426.1367,115.3367 L427.1229,115.3367 L427.1229,116.2 L424.1711,116.2 L424.1711,115.3367 L425.1572,115.3367 L425.1572,112.1061 Z "/><text fill="#000000" font-family="sans-serif" font-size="4.8" font-style="italic" lengthAdjust="spacingAndGlyphs" textLength="54.4" x="431.2" y="115.4141">DeploymentPlanCreator</text><line style="stroke: #A80036; stroke-width: 0.6000000000000001;" x1="420" x2="486.4" y1="120" y2="120"/><line style="stroke: #A80036; stroke-width: 0.6000000000000001;" x1="420" x2="486.4" y1="123.2" y2="123.2"/><!--MD5=[5cd6e3eead63dda206e8d2b414871cad]
class ServiceCreator--><rect fill="#FEFECE" filter="url(#f88ox93glqemf)" height="19.2" id="ServiceCreator" style="stroke: #A80036; stroke-width: 0.6000000000000001;" width="46" x="565.4" y="150.4"/><ellipse cx="571.4" cy="156.8" fill="#B4A7E5" rx="4.4" ry="4.4" style="stroke: #A80036; stroke-width: 0.4;"/><path d="M569.9711,155.3061 L569.9711,154.4428 L572.9229,154.4428 L572.9229,155.3061 L571.9367,155.3061 L571.9367,158.5367 L572.9229,158.5367 L572.9229,159.4 L569.9711,159.4 L569.9711,158.5367 L570.9572,158.5367 L570.9572,155.3061 Z "/><text fill="#000000" font-family="sans-serif" font-size="4.8" font-style="italic" lengthAdjust="spacingAndGlyphs" textLength="33.2" x="577" y="158.6141">ServiceCreator</text><line style="stroke: #A80036; stroke-width: 0.6000000000000001;" x1="565.8" x2="611" y1="163.2" y2="163.2"/><line style="stroke: #A80036; stroke-width: 0.6000000000000001;" x1="565.8" x2="611" y1="166.4" y2="166.4"/><!--MD5=[e207d28431a0b242fa20540650206b35]
class VirtualMachineCreator--><rect fill="#FEFECE" filter="url(#f88ox93glqemf)" height="19.2" id="VirtualMachineCreator" style="stroke: #A80036; stroke-width: 0.6000000000000001;" width="63.6" x="625.4" y="150.4"/><ellipse cx="631.4" cy="156.8" fill="#B4A7E5" rx="4.4" ry="4.4" style="stroke: #A80036; stroke-width: 0.4;"/><path d="M629.9711,155.3061 L629.9711,154.4428 L632.9229,154.4428 L632.9229,155.3061 L631.9367,155.3061 L631.9367,158.5367 L632.9229,158.5367 L632.9229,159.4 L629.9711,159.4 L629.9711,158.5367 L630.9572,158.5367 L630.9572,155.3061 Z "/><text fill="#000000" font-family="sans-serif" font-size="4.8" font-style="italic" lengthAdjust="spacingAndGlyphs" textLength="50.8" x="637" y="158.6141">VirtualMachineCreator</text><line style="stroke: #A80036; stroke-width: 0.6000000000000001;" x1="625.8" x2="688.6" y1="163.2" y2="163.2"/><line style="stroke: #A80036; stroke-width: 0.6000000000000001;" x1="625.8" x2="688.6" y1="166.4" y2="166.4"/><!--MD5=[db9c8f59f1f0a7e539059547ba6ad067]
class AmiazonCloud--><rect fill="#FEFECE" filter="url(#f88ox93glqemf)" height="19.2" id="AmiazonCloud" style="stroke: #A80036; stroke-width: 0.6000000000000001;" width="46" x="158.2" y="58"/><ellipse cx="164.2" cy="64.4" fill="#ADD1B2" rx="4.4" ry="4.4" style="stroke: #A80036; stroke-width: 0.4;"/><path d="M165.1893,66.8572 Q164.9568,66.9768 164.7012,67.0365 Q164.4455,67.0963 164.1633,67.0963 Q163.1605,67.0963 162.6326,66.4355 Q162.1047,65.7748 162.1047,64.5264 Q162.1047,63.2746 162.6326,62.6139 Q163.1605,61.9531 164.1633,61.9531 Q164.4455,61.9531 164.7045,62.0129 Q164.9635,62.0727 165.1893,62.1922 L165.1893,63.2813 Q164.9369,63.0488 164.6995,62.9409 Q164.4621,62.833 164.2098,62.833 Q163.6719,62.833 163.3979,63.2597 Q163.124,63.6863 163.124,64.5264 Q163.124,65.3631 163.3979,65.7897 Q163.6719,66.2164 164.2098,66.2164 Q164.4621,66.2164 164.6995,66.1085 Q164.9369,66.0006 165.1893,65.7682 Z "/><text fill="#000000" font-family="sans-serif" font-size="4.8" lengthAdjust="spacingAndGlyphs" textLength="33.2" x="169.8" y="66.2141">AmiazonCloud</text><line style="stroke: #A80036; stroke-width: 0.6000000000000001;" x1="158.6" x2="203.8" y1="70.8" y2="70.8"/><line style="stroke: #A80036; stroke-width: 0.6000000000000001;" x1="158.6" x2="203.8" y1="74" y2="74"/><!--MD5=[58d2c3daaf8e42dc796cbdf6e12085f3]
class CloudImpl--><rect fill="#FEFECE" filter="url(#f88ox93glqemf)" height="19.2" id="CloudImpl" style="stroke: #A80036; stroke-width: 0.6000000000000001;" width="36" x="163.2" y="107.2"/><ellipse cx="169.2" cy="113.6" fill="#ADD1B2" rx="4.4" ry="4.4" style="stroke: #A80036; stroke-width: 0.4;"/><path d="M170.1893,116.0572 Q169.9568,116.1768 169.7012,116.2365 Q169.4455,116.2963 169.1633,116.2963 Q168.1605,116.2963 167.6326,115.6355 Q167.1047,114.9748 167.1047,113.7264 Q167.1047,112.4746 167.6326,111.8139 Q168.1605,111.1531 169.1633,111.1531 Q169.4455,111.1531 169.7045,111.2129 Q169.9635,111.2727 170.1893,111.3922 L170.1893,112.4813 Q169.9369,112.2488 169.6995,112.1409 Q169.4621,112.033 169.2098,112.033 Q168.6719,112.033 168.3979,112.4597 Q168.124,112.8863 168.124,113.7264 Q168.124,114.5631 168.3979,114.9897 Q168.6719,115.4164 169.2098,115.4164 Q169.4621,115.4164 169.6995,115.3085 Q169.9369,115.2006 170.1893,114.9682 Z "/><text fill="#000000" font-family="sans-serif" font-size="4.8" lengthAdjust="spacingAndGlyphs" textLength="23.2" x="174.8" y="115.4141">CloudImpl</text><line style="stroke: #A80036; stroke-width: 0.6000000000000001;" x1="163.6" x2="198.8" y1="120" y2="120"/><line style="stroke: #A80036; stroke-width: 0.6000000000000001;" x1="163.6" x2="198.8" y1="123.2" y2="123.2"/><!--MD5=[5c4a57cf0f9642c63cf6541d384a5d6f]
class AmiazonCloudProvider--><rect fill="#FEFECE" filter="url(#f88ox93glqemf)" height="19.2" id="AmiazonCloudProvider" style="stroke: #A80036; stroke-width: 0.6000000000000001;" width="65.2" x="322.2" y="58"/><ellipse cx="328.2" cy="64.4" fill="#ADD1B2" rx="4.4" ry="4.4" style="stroke: #A80036; stroke-width: 0.4;"/><path d="M329.1893,66.8572 Q328.9568,66.9768 328.7012,67.0365 Q328.4455,67.0963 328.1633,67.0963 Q327.1605,67.0963 326.6326,66.4355 Q326.1047,65.7748 326.1047,64.5264 Q326.1047,63.2746 326.6326,62.6139 Q327.1605,61.9531 328.1633,61.9531 Q328.4455,61.9531 328.7045,62.0129 Q328.9635,62.0727 329.1893,62.1922 L329.1893,63.2813 Q328.9369,63.0488 328.6995,62.9409 Q328.4621,62.833 328.2098,62.833 Q327.6719,62.833 327.3979,63.2597 Q327.124,63.6863 327.124,64.5264 Q327.124,65.3631 327.3979,65.7897 Q327.6719,66.2164 328.2098,66.2164 Q328.4621,66.2164 328.6995,66.1085 Q328.9369,66.0006 329.1893,65.7682 Z "/><text fill="#000000" font-family="sans-serif" font-size="4.8" lengthAdjust="spacingAndGlyphs" textLength="52.4" x="333.8" y="66.2141">AmiazonCloudProvider</text><line style="stroke: #A80036; stroke-width: 0.6000000000000001;" x1="322.6" x2="387" y1="70.8" y2="70.8"/><line style="stroke: #A80036; stroke-width: 0.6000000000000001;" x1="322.6" x2="387" y1="74" y2="74"/><!--MD5=[4d2d6d1a7ce8fb07ed94cf1d4bac1013]
class AmiazonDeployementPlanCreator--><rect fill="#FEFECE" filter="url(#f88ox93glqemf)" height="19.2" id="AmiazonDeployementPlanCreator" style="stroke: #A80036; stroke-width: 0.6000000000000001;" width="90" x="218.2" y="58"/><ellipse cx="224.2" cy="64.4" fill="#ADD1B2" rx="4.4" ry="4.4" style="stroke: #A80036; stroke-width: 0.4;"/><path d="M225.1893,66.8572 Q224.9568,66.9768 224.7012,67.0365 Q224.4455,67.0963 224.1633,67.0963 Q223.1605,67.0963 222.6326,66.4355 Q222.1047,65.7748 222.1047,64.5264 Q222.1047,63.2746 222.6326,62.6139 Q223.1605,61.9531 224.1633,61.9531 Q224.4455,61.9531 224.7045,62.0129 Q224.9635,62.0727 225.1893,62.1922 L225.1893,63.2813 Q224.9369,63.0488 224.6995,62.9409 Q224.4621,62.833 224.2098,62.833 Q223.6719,62.833 223.3979,63.2597 Q223.124,63.6863 223.124,64.5264 Q223.124,65.3631 223.3979,65.7897 Q223.6719,66.2164 224.2098,66.2164 Q224.4621,66.2164 224.6995,66.1085 Q224.9369,66.0006 225.1893,65.7682 Z "/><text fill="#000000" font-family="sans-serif" font-size="4.8" lengthAdjust="spacingAndGlyphs" textLength="77.2" x="229.8" y="66.2141">AmiazonDeployementPlanCreator</text><line style="stroke: #A80036; stroke-width: 0.6000000000000001;" x1="218.6" x2="307.8" y1="70.8" y2="70.8"/><line style="stroke: #A80036; stroke-width: 0.6000000000000001;" x1="218.6" x2="307.8" y1="74" y2="74"/><polygon fill="#FFFFFF" filter="url(#f88ox93glqemf)" points="108.8,57,138.4,57,141.2,65.9953,144,65.9953,144,78.1906,108.8,78.1906,108.8,57" style="stroke: #000000; stroke-width: 0.6000000000000001;"/><line style="stroke: #000000; stroke-width: 0.6000000000000001;" x1="108.8" x2="141.2" y1="65.9953" y2="65.9953"/><text fill="#000000" font-family="sans-serif" font-size="5.6" font-weight="bold" lengthAdjust="spacingAndGlyphs" textLength="27.2" x="110.4" y="63.2141">softcloud</text><!--MD5=[0cc4716e934d2fb1cd532662b886c638]
class CloudProviderLoader--><rect fill="#FEFECE" filter="url(#f88ox93glqemf)" height="19.2" id="CloudProviderLoader" style="stroke: #A80036; stroke-width: 0.6000000000000001;" width="61.2" x="25" y="58"/><ellipse cx="31" cy="64.4" fill="#ADD1B2" rx="4.4" ry="4.4" style="stroke: #A80036; stroke-width: 0.4;"/><path d="M31.9893,66.8572 Q31.7568,66.9768 31.5012,67.0365 Q31.2455,67.0963 30.9633,67.0963 Q29.9605,67.0963 29.4326,66.4355 Q28.9047,65.7748 28.9047,64.5264 Q28.9047,63.2746 29.4326,62.6139 Q29.9605,61.9531 30.9633,61.9531 Q31.2455,61.9531 31.5045,62.0129 Q31.7635,62.0727 31.9893,62.1922 L31.9893,63.2813 Q31.7369,63.0488 31.4995,62.9409 Q31.2621,62.833 31.0098,62.833 Q30.4719,62.833 30.1979,63.2597 Q29.924,63.6863 29.924,64.5264 Q29.924,65.3631 30.1979,65.7897 Q30.4719,66.2164 31.0098,66.2164 Q31.2621,66.2164 31.4995,66.1085 Q31.7369,66.0006 31.9893,65.7682 Z "/><text fill="#000000" font-family="sans-serif" font-size="4.8" lengthAdjust="spacingAndGlyphs" textLength="48.4" x="36.6" y="66.2141">CloudProviderLoader</text><line style="stroke: #A80036; stroke-width: 0.6000000000000001;" x1="25.4" x2="85.8" y1="70.8" y2="70.8"/><line style="stroke: #A80036; stroke-width: 0.6000000000000001;" x1="25.4" x2="85.8" y1="74" y2="74"/><!--MD5=[8e6d416e325402340e2146445e7c4627]
link AmiazonCloud to CloudImpl--><path d="M181.2,77.216 C181.2,83.368 181.2,91.648 181.2,99.012 " fill="none" id="AmiazonCloud-&gt;CloudImpl" style="stroke: #A80036; stroke-width: 0.4;"/><polygon fill="none" points="184,99.052,181.2,107.052,178.4,99.052,184,99.052" style="stroke: #A80036; stroke-width: 0.4;"/><!--MD5=[94fbc1ebfdf67b2937cae470c5ac9264]
link AmiazonCloudProvider to CloudProvider--><path d="M387.412,68.016 C416.636,69.196 460.008,73.892 494,90 C499.82,92.756 505.336,97.02 509.996,101.324 " fill="none" id="AmiazonCloudProvider-&gt;CloudProvider" style="stroke: #A80036; stroke-width: 0.4; stroke-dasharray: 7.0,7.0;"/><polygon fill="none" points="512.076,99.448,515.764,107.08,508.124,103.412,512.076,99.448" style="stroke: #A80036; stroke-width: 0.4;"/><!--MD5=[57458784688dba3623223168d79300fe]
link AmiazonDeployementPlanCreator to DeploymentPlanCreator--><path d="M284.16,77.236 C293.48,80.908 304.696,84.74 315.2,86.8 C349.596,93.548 359.872,82.008 394,90 C406.3,92.88 419.196,98.312 429.8,103.5 " fill="none" id="AmiazonDeployementPlanCreator-&gt;DeploymentPlanCreator" style="stroke: #A80036; stroke-width: 0.4; stroke-dasharray: 7.0,7.0;"/><polygon fill="none" points="431.212,101.076,437.076,107.196,428.676,106.068,431.212,101.076" style="stroke: #A80036; stroke-width: 0.4;"/><!--MD5=[49af079eee06d24df54398d66a5370a8]
link ComponentCreator to ComputeNodeCreator--><!--MD5=[22e30968cf2a6281e784962c98013be5]
link ComponentCreator to ServiceCreator--><!--MD5=[fdcb554e2c358c5cdbfa6d5f06a62cf8]
link ServiceCreator to VirtualMachineCreator--><!--MD5=[ccaec11789cc5f095f7922fbd15bae76]
@startuml

package creation{
package api{
Interface CloudProvider
Interface ComponentCreator
Interface ComputeNodeCreator
Interface DeploymentPlanCreator
Interface ServiceCreator
Interface VirtualMachineCreator

}

package cloudproviders{
package amiazon{
Class AmiazonCloud
AmiazonCloud - -|> CloudImpl

Class AmiazonCloudProvider
AmiazonCloudProvider ..|> CloudProvider

Class AmiazonDeployementPlanCreator
AmiazonDeployementPlanCreator ..|> DeploymentPlanCreator

}
package softcloud{
}
}

package impl{
Class CloudProviderLoader
}

}

@enduml

PlantUML version 1.2020.03beta6(Unknown compile time)
(GPL source distribution)
Java Runtime: OpenJDK Runtime Environment
JVM: OpenJDK 64-Bit Server VM
Java Version: 11.0.4+10-b304.77
Operating System: Mac OS X
Default Encoding: UTF-8
Language: fr
Country: FR
--></g></svg>