<?xml version="1.0" encoding="UTF-8" standalone="no"?><svg xmlns="http://www.w3.org/2000/svg" xmlns:xlink="http://www.w3.org/1999/xlink" contentScriptType="application/ecmascript" contentStyleType="text/css" height="54px" preserveAspectRatio="none" style="width:117px;height:54px;" version="1.1" viewBox="0 0 117 54" width="117.6px" zoomAndPan="magnify"><defs><filter height="300%" id="f1g3e5ongk3c15" width="300%" x="-1" y="-1"><feGaussianBlur result="blurOut" stdDeviation="0.8"/><feColorMatrix in="blurOut" result="blurOut2" type="matrix" values="0 0 0 0 0 0 0 0 0 0 0 0 0 0 0 0 0 0 .4 0"/><feOffset dx="1.6" dy="1.6" in="blurOut2" result="blurOut3"/><feBlend in="SourceGraphic" in2="blurOut3" mode="normal"/></filter></defs><g><!--MD5=[11f03a07a4422c8eb8f650dbf201ac41]
cluster exception--><polygon fill="#FFFFFF" filter="url(#f1g3e5ongk3c15)" points="8.8,9.6,38.8,9.6,41.6,18.5953,108.8,18.5953,108.8,49.2,8.8,49.2,8.8,9.6" style="stroke: #000000; stroke-width: 0.6000000000000001;"/><line style="stroke: #000000; stroke-width: 0.6000000000000001;" x1="8.8" x2="41.6" y1="18.5953" y2="18.5953"/><text fill="#000000" font-family="sans-serif" font-size="5.6" font-weight="bold" lengthAdjust="spacingAndGlyphs" textLength="27.6" x="10.4" y="15.8141">exception</text><!--MD5=[c1f6a75c11b0ccc6d731c2dd63317b67]
class ResourceAlreadyExistsException--><rect fill="#FEFECE" filter="url(#f1g3e5ongk3c15)" height="19.2" id="ResourceAlreadyExistsException" style="stroke: #A80036; stroke-width: 0.6000000000000001;" width="87.2" x="15.2" y="23.6"/><ellipse cx="21.2" cy="30" fill="#ADD1B2" rx="4.4" ry="4.4" style="stroke: #A80036; stroke-width: 0.4;"/><path d="M22.1893,32.4572 Q21.9568,32.5768 21.7012,32.6365 Q21.4455,32.6963 21.1633,32.6963 Q20.1605,32.6963 19.6326,32.0355 Q19.1047,31.3748 19.1047,30.1264 Q19.1047,28.8746 19.6326,28.2139 Q20.1605,27.5531 21.1633,27.5531 Q21.4455,27.5531 21.7045,27.6129 Q21.9635,27.6727 22.1893,27.7922 L22.1893,28.8813 Q21.9369,28.6488 21.6995,28.5409 Q21.4621,28.433 21.2098,28.433 Q20.6719,28.433 20.3979,28.8597 Q20.124,29.2863 20.124,30.1264 Q20.124,30.9631 20.3979,31.3897 Q20.6719,31.8164 21.2098,31.8164 Q21.4621,31.8164 21.6995,31.7085 Q21.9369,31.6006 22.1893,31.3682 Z "/><text fill="#000000" font-family="sans-serif" font-size="4.8" lengthAdjust="spacingAndGlyphs" textLength="74.4" x="26.8" y="31.8141">ResourceAlreadyExistsException</text><line style="stroke: #A80036; stroke-width: 0.6000000000000001;" x1="15.6" x2="102" y1="36.4" y2="36.4"/><line style="stroke: #A80036; stroke-width: 0.6000000000000001;" x1="15.6" x2="102" y1="39.6" y2="39.6"/><!--MD5=[254910a6224368415cf6b309a2974049]
@startuml

package exception{
Class ResourceAlreadyExistsException
}

@enduml

PlantUML version 1.2020.03beta6(Unknown compile time)
(GPL source distribution)
Java Runtime: OpenJDK Runtime Environment
JVM: OpenJDK 64-Bit Server VM
Java Version: 11.0.4+10-b304.77
Operating System: Mac OS X
Default Encoding: UTF-8
Language: fr
Country: FR
--></g></svg>