<?xml version="1.0" encoding="UTF-8" standalone="no"?><svg xmlns="http://www.w3.org/2000/svg" xmlns:xlink="http://www.w3.org/1999/xlink" contentScriptType="application/ecmascript" contentStyleType="text/css" height="54px" preserveAspectRatio="none" style="width:172px;height:54px;" version="1.1" viewBox="0 0 172 54" width="172.8px" zoomAndPan="magnify"><defs><filter height="300%" id="f4jatj60265db" width="300%" x="-1" y="-1"><feGaussianBlur result="blurOut" stdDeviation="0.8"/><feColorMatrix in="blurOut" result="blurOut2" type="matrix" values="0 0 0 0 0 0 0 0 0 0 0 0 0 0 0 0 0 0 .4 0"/><feOffset dx="1.6" dy="1.6" in="blurOut2" result="blurOut3"/><feBlend in="SourceGraphic" in2="blurOut3" mode="normal"/></filter></defs><g><!--MD5=[272379cf1f80536b6294ad33393ecec2]
cluster registry--><polygon fill="#FFFFFF" filter="url(#f4jatj60265db)" points="8.8,9.6,33.6,9.6,36.4,18.5953,164,18.5953,164,49.2,8.8,49.2,8.8,9.6" style="stroke: #000000; stroke-width: 0.6000000000000001;"/><line style="stroke: #000000; stroke-width: 0.6000000000000001;" x1="8.8" x2="36.4" y1="18.5953" y2="18.5953"/><text fill="#000000" font-family="sans-serif" font-size="5.6" font-weight="bold" lengthAdjust="spacingAndGlyphs" textLength="22.4" x="10.4" y="15.8141">registry</text><!--MD5=[c69375715e2ce8104af88307182e14a6]
class ComponentTypeRegistry--><rect fill="#FEFECE" filter="url(#f4jatj60265db)" height="19.2" id="ComponentTypeRegistry" style="stroke: #A80036; stroke-width: 0.6000000000000001;" width="69.2" x="88.2" y="23.6"/><ellipse cx="94.2" cy="30" fill="#ADD1B2" rx="4.4" ry="4.4" style="stroke: #A80036; stroke-width: 0.4;"/><path d="M95.1893,32.4572 Q94.9568,32.5768 94.7012,32.6365 Q94.4455,32.6963 94.1633,32.6963 Q93.1605,32.6963 92.6326,32.0355 Q92.1047,31.3748 92.1047,30.1264 Q92.1047,28.8746 92.6326,28.2139 Q93.1605,27.5531 94.1633,27.5531 Q94.4455,27.5531 94.7045,27.6129 Q94.9635,27.6727 95.1893,27.7922 L95.1893,28.8813 Q94.9369,28.6488 94.6995,28.5409 Q94.4621,28.433 94.2098,28.433 Q93.6719,28.433 93.3979,28.8597 Q93.124,29.2863 93.124,30.1264 Q93.124,30.9631 93.3979,31.3897 Q93.6719,31.8164 94.2098,31.8164 Q94.4621,31.8164 94.6995,31.7085 Q94.9369,31.6006 95.1893,31.3682 Z "/><text fill="#000000" font-family="sans-serif" font-size="4.8" lengthAdjust="spacingAndGlyphs" textLength="56.4" x="99.8" y="31.8141">ComponentTypeRegistry</text><line style="stroke: #A80036; stroke-width: 0.6000000000000001;" x1="88.6" x2="157" y1="36.4" y2="36.4"/><line style="stroke: #A80036; stroke-width: 0.6000000000000001;" x1="88.6" x2="157" y1="39.6" y2="39.6"/><!--MD5=[78130e775fd7085213ea30ee01b4ebb4]
class ServiceTypeRegistry--><rect fill="#FEFECE" filter="url(#f4jatj60265db)" height="19.2" id="ServiceTypeRegistry" style="stroke: #A80036; stroke-width: 0.6000000000000001;" width="58.8" x="15.4" y="23.6"/><ellipse cx="21.4" cy="30" fill="#ADD1B2" rx="4.4" ry="4.4" style="stroke: #A80036; stroke-width: 0.4;"/><path d="M22.3893,32.4572 Q22.1568,32.5768 21.9012,32.6365 Q21.6455,32.6963 21.3633,32.6963 Q20.3605,32.6963 19.8326,32.0355 Q19.3047,31.3748 19.3047,30.1264 Q19.3047,28.8746 19.8326,28.2139 Q20.3605,27.5531 21.3633,27.5531 Q21.6455,27.5531 21.9045,27.6129 Q22.1635,27.6727 22.3893,27.7922 L22.3893,28.8813 Q22.1369,28.6488 21.8995,28.5409 Q21.6621,28.433 21.4098,28.433 Q20.8719,28.433 20.5979,28.8597 Q20.324,29.2863 20.324,30.1264 Q20.324,30.9631 20.5979,31.3897 Q20.8719,31.8164 21.4098,31.8164 Q21.6621,31.8164 21.8995,31.7085 Q22.1369,31.6006 22.3893,31.3682 Z "/><text fill="#000000" font-family="sans-serif" font-size="4.8" lengthAdjust="spacingAndGlyphs" textLength="46" x="27" y="31.8141">ServiceTypeRegistry</text><line style="stroke: #A80036; stroke-width: 0.6000000000000001;" x1="15.8" x2="73.8" y1="36.4" y2="36.4"/><line style="stroke: #A80036; stroke-width: 0.6000000000000001;" x1="15.8" x2="73.8" y1="39.6" y2="39.6"/><!--MD5=[33c5675d005822ad45579916bf198c7e]
@startuml

package registry{
Class ComponentTypeRegistry
Class ServiceTypeRegistry
}

@enduml

PlantUML version 1.2020.03beta6(Unknown compile time)
(GPL source distribution)
Java Runtime: OpenJDK Runtime Environment
JVM: OpenJDK 64-Bit Server VM
Java Version: 11.0.4+10-b304.77
Operating System: Mac OS X
Default Encoding: UTF-8
Language: fr
Country: FR
--></g></svg>