<?xml version="1.0" encoding="UTF-8" standalone="no"?><svg xmlns="http://www.w3.org/2000/svg" xmlns:xlink="http://www.w3.org/1999/xlink" contentScriptType="application/ecmascript" contentStyleType="text/css" height="148.4px" preserveAspectRatio="none" style="width:92px;height:148px;" version="1.1" viewBox="0 0 92 148" width="92px" zoomAndPan="magnify"><defs><filter height="300%" id="f12joqo5t2516x" width="300%" x="-1" y="-1"><feGaussianBlur result="blurOut" stdDeviation="0.8"/><feColorMatrix in="blurOut" result="blurOut2" type="matrix" values="0 0 0 0 0 0 0 0 0 0 0 0 0 0 0 0 0 0 .4 0"/><feOffset dx="1.6" dy="1.6" in="blurOut2" result="blurOut3"/><feBlend in="SourceGraphic" in2="blurOut3" mode="normal"/></filter></defs><g><!--MD5=[0b345ef6076978fe6b76e1700c6e0729]
cluster visitable--><polygon fill="#FFFFFF" filter="url(#f12joqo5t2516x)" points="8.8,9.6,36,9.6,38.8,18.5953,83.2,18.5953,83.2,143.6,8.8,143.6,8.8,9.6" style="stroke: #000000; stroke-width: 0.6000000000000001;"/><line style="stroke: #000000; stroke-width: 0.6000000000000001;" x1="8.8" x2="38.8" y1="18.5953" y2="18.5953"/><text fill="#000000" font-family="sans-serif" font-size="5.6" font-weight="bold" lengthAdjust="spacingAndGlyphs" textLength="24.8" x="10.4" y="15.8141">visitable</text><!--MD5=[7442f3b126ee602ae02566c1a49e158a]
cluster api--><polygon fill="#FFFFFF" filter="url(#f12joqo5t2516x)" points="23.2,94.4,34.4,94.4,37.2,103.3953,68.8,103.3953,68.8,134,23.2,134,23.2,94.4" style="stroke: #000000; stroke-width: 0.6000000000000001;"/><line style="stroke: #000000; stroke-width: 0.6000000000000001;" x1="23.2" x2="37.2" y1="103.3953" y2="103.3953"/><text fill="#000000" font-family="sans-serif" font-size="5.6" font-weight="bold" lengthAdjust="spacingAndGlyphs" textLength="8.8" x="24.8" y="100.6141">api</text><!--MD5=[cf58d37b78f149325f79356613ff3b39]
cluster impl--><polygon fill="#FFFFFF" filter="url(#f12joqo5t2516x)" points="18.4,26.8,34,26.8,36.8,35.7953,73.6,35.7953,73.6,66.4,18.4,66.4,18.4,26.8" style="stroke: #000000; stroke-width: 0.6000000000000001;"/><line style="stroke: #000000; stroke-width: 0.6000000000000001;" x1="18.4" x2="36.8" y1="35.7953" y2="35.7953"/><text fill="#000000" font-family="sans-serif" font-size="5.6" font-weight="bold" lengthAdjust="spacingAndGlyphs" textLength="13.2" x="20" y="33.0141">impl</text><!--MD5=[f20ada3ca227c64212466c9d003cfe8d]
class Visitable--><rect fill="#FEFECE" filter="url(#f12joqo5t2516x)" height="19.2" id="Visitable" style="stroke: #A80036; stroke-width: 0.6000000000000001;" width="32.4" x="29.8" y="108.4"/><ellipse cx="35.8" cy="114.8" fill="#B4A7E5" rx="4.4" ry="4.4" style="stroke: #A80036; stroke-width: 0.4;"/><path d="M34.3711,113.3061 L34.3711,112.4428 L37.3229,112.4428 L37.3229,113.3061 L36.3367,113.3061 L36.3367,116.5367 L37.3229,116.5367 L37.3229,117.4 L34.3711,117.4 L34.3711,116.5367 L35.3572,116.5367 L35.3572,113.3061 Z "/><text fill="#000000" font-family="sans-serif" font-size="4.8" font-style="italic" lengthAdjust="spacingAndGlyphs" textLength="19.6" x="41.4" y="116.6141">Visitable</text><line style="stroke: #A80036; stroke-width: 0.6000000000000001;" x1="30.2" x2="61.8" y1="121.2" y2="121.2"/><line style="stroke: #A80036; stroke-width: 0.6000000000000001;" x1="30.2" x2="61.8" y1="124.4" y2="124.4"/><!--MD5=[704d4c114b4536a5f775b7b41943b85d]
class VisitableImpl--><rect fill="#FEFECE" filter="url(#f12joqo5t2516x)" height="19.2" id="VisitableImpl" style="stroke: #A80036; stroke-width: 0.6000000000000001;" width="42.4" x="24.8" y="40.8"/><ellipse cx="30.8" cy="47.2" fill="#ADD1B2" rx="4.4" ry="4.4" style="stroke: #A80036; stroke-width: 0.4;"/><path d="M31.7893,49.6572 Q31.5568,49.7768 31.3012,49.8365 Q31.0455,49.8963 30.7633,49.8963 Q29.7605,49.8963 29.2326,49.2355 Q28.7047,48.5748 28.7047,47.3264 Q28.7047,46.0746 29.2326,45.4139 Q29.7605,44.7531 30.7633,44.7531 Q31.0455,44.7531 31.3045,44.8129 Q31.5635,44.8727 31.7893,44.9922 L31.7893,46.0813 Q31.5369,45.8488 31.2995,45.7409 Q31.0621,45.633 30.8098,45.633 Q30.2719,45.633 29.9979,46.0597 Q29.724,46.4863 29.724,47.3264 Q29.724,48.1631 29.9979,48.5897 Q30.2719,49.0164 30.8098,49.0164 Q31.0621,49.0164 31.2995,48.9085 Q31.5369,48.8006 31.7893,48.5682 Z "/><text fill="#000000" font-family="sans-serif" font-size="4.8" lengthAdjust="spacingAndGlyphs" textLength="29.6" x="36.4" y="49.0141">VisitableImpl</text><line style="stroke: #A80036; stroke-width: 0.6000000000000001;" x1="25.2" x2="66.8" y1="53.6" y2="53.6"/><line style="stroke: #A80036; stroke-width: 0.6000000000000001;" x1="25.2" x2="66.8" y1="56.8" y2="56.8"/><!--MD5=[9b5aee9e8e8c85eb753daa8375a8a6f0]
link VisitableImpl to Visitable--><path d="M46,60.088 C46,70.456 46,87.468 46,100.304 " fill="none" id="VisitableImpl-&gt;Visitable" style="stroke: #A80036; stroke-width: 0.4; stroke-dasharray: 7.0,7.0;"/><polygon fill="none" points="48.8,100.392,46,108.392,43.2,100.392,48.8,100.392" style="stroke: #A80036; stroke-width: 0.4;"/><!--MD5=[5c01f99234bda0e2fa190e0ca1187d84]
@startuml

package visitable{
package api{
Interface Visitable
}
package impl{
Class VisitableImpl
VisitableImpl ...|> Visitable
}
}

@enduml

PlantUML version 1.2020.03beta6(Unknown compile time)
(GPL source distribution)
Java Runtime: OpenJDK Runtime Environment
JVM: OpenJDK 64-Bit Server VM
Java Version: 11.0.4+10-b304.77
Operating System: Mac OS X
Default Encoding: UTF-8
Language: fr
Country: FR
--></g></svg>